# xmcd CD database file
#
# Track frame offsets:
#	150
#	13575
#	28375
#	43562
#	57450
#	70975
#	84087
#	96512
#	109200
#	123187
#	136700
#	150870
#	163050
#	175437
#	187200
#	198300
#	210800
#
# Disc length: 2981 seconds
#
# Revision: 0
# Processed by: cddbd v1.5.1PL2 Copyright (c) Steve Scherf et al.
# Submitted via: CDex 1.51
#
DISCID=e40ba311
DTITLE=Hoosier Hot Shots - The Definitive Hoosier Hotshots Collection Disc 1
DYEAR=1900
DGENRE=Country
TTITLE0=Meet Me By The Ice House Lizzie
TTITLE1=Them Hill-Bilies Are Mountain Williams Now
TTITLE2=I Like Bananas (Because They Have No Bones)
TTITLE3=Wah-Hoo!
TTITLE4=I Like Mountain Music
TTITLE5=You're Driving Me Crazy! (What Did I Do?)
TTITLE6=Take Me Out to the Ball Game
TTITLE7=Hot Lips
TTITLE8=(Back Home Again In) Indiana
TTITLE9=I Ain't Got Nobody (And Nobody Cares for Me)
TTITLE10=The Coat and the Pants Do All the Work (And the Vest Gets All the Gravy)
TTITLE11=How 'Ya Gonna Keep 'Em Down on the Farm (After They've Seen Paree)
TTITLE12=Red Hot Fannie
TTITLE13=Down in Jungle Town
TTITLE14=A Hot Dog, A Blanket and You
TTITLE15=From the Indies to the Andes in His Undies
TTITLE16=The Martins and the Coys
EXTD=
EXTT0=
EXTT1=
EXTT2=
EXTT3=
EXTT4=
EXTT5=
EXTT6=
EXTT7=
EXTT8=
EXTT9=
EXTT10=
EXTT11=
EXTT12=
EXTT13=
EXTT14=
EXTT15=
EXTT16=
PLAYORDER=
